<svg width="512" height="512" viewBox="0 0 512 512" fill="none" xmlns="http://www.w3.org/2000/svg">
<circle cx="256" cy="256" r="256" fill="#1F1F1F"/>
<path d="M344.153 380.906H240.866V410.234H344.153V380.906Z" fill="white"/>
<path d="M240.852 226.7V388.363H270.18V226.7H240.852Z" fill="white"/>
<path d="M308.238 303.975H173.479V333.302H308.238V303.975Z" fill="white"/>
<path d="M173.494 73.0007L173.494 311.575H202.821V73.0007H173.494Z" fill="white"/>
<path d="M344.083 226.711H240.796V256.039H344.083V226.711Z" fill="white"/>
<path d="M318.014 240.109L405.578 409.862H439C407.38 348.812 375.759 287.758 344.139 226.698L318.014 240.109Z" fill="white"/>
<path d="M173.48 73L39 333.479H72.1291L199.549 86.4522L173.48 73Z" fill="white"/>
<path d="M438.485 227.075L344.097 410.239L318.014 396.787L358.496 318.344L405.578 227.047L438.485 227.075Z" fill="white"/>
<path d="M201.985 226.711H98.6989V256.039H201.985V226.711Z" fill="white"/>
</svg>
