<svg width="86" height="78" viewBox="0 0 86 78" fill="none" xmlns="http://www.w3.org/2000/svg">
<mask id="path-1-inside-1_27_307" fill="white">
<path fill-rule="evenodd" clip-rule="evenodd" d="M17.5888 48.3291C17.6012 48.3291 17.6135 48.3292 17.6259 48.3292C17.6382 48.3292 17.6506 48.3291 17.6629 48.3291H74.4838V48.3158C80.8141 48.019 85.8554 42.7927 85.8554 36.389C85.8554 29.7946 80.5096 24.4489 73.9153 24.4489C73.4222 24.4489 72.9361 24.4788 72.4586 24.5368C71.2149 19.2706 66.4841 15.3516 60.8379 15.3516C59.9164 15.3516 59.0193 15.4559 58.1578 15.6535C55.3731 6.58932 46.9349 0 36.9576 0C27.944 0 20.1864 5.37804 16.7188 13.1003C7.40583 13.5724 0 21.273 0 30.7033C0 40.0558 7.28428 47.7071 16.489 48.2931V48.3291H17.5888Z"/>
</mask>
<path d="M17.5888 48.3291L17.5999 42.3291H17.5888V48.3291ZM17.6629 48.3291V42.3291L17.6518 42.3291L17.6629 48.3291ZM74.4838 48.3291V54.3291H80.4838V48.3291H74.4838ZM74.4838 48.3158L74.2028 42.3224L68.4838 42.5905V48.3158H74.4838ZM72.4586 24.5368L66.6193 25.9159L67.8533 31.1412L73.183 30.4929L72.4586 24.5368ZM58.1578 15.6535L52.4224 17.4156L54.0609 22.7489L59.499 21.5017L58.1578 15.6535ZM16.7188 13.1003L17.0226 19.0926L20.6886 18.9068L22.1923 15.5582L16.7188 13.1003ZM16.489 48.2931H22.489V42.6629L16.8702 42.3052L16.489 48.2931ZM16.489 48.3291H10.489V54.3291H16.489V48.3291ZM17.5777 54.3291C17.5924 54.3291 17.6087 54.3292 17.6259 54.3292V42.3292C17.6184 42.3292 17.6099 42.3291 17.5999 42.3291L17.5777 54.3291ZM17.6259 54.3292C17.6431 54.3292 17.6593 54.3291 17.6741 54.3291L17.6518 42.3291C17.6418 42.3291 17.6334 42.3292 17.6259 42.3292V54.3292ZM74.4838 42.3291H17.6629V54.3291H74.4838V42.3291ZM68.4838 48.3158V48.3291H80.4838V48.3158H68.4838ZM74.7647 54.3092C84.2809 53.8631 91.8554 46.0123 91.8554 36.389H79.8554C79.8554 39.5731 77.3474 42.175 74.2028 42.3224L74.7647 54.3092ZM91.8554 36.389C91.8554 26.4809 83.8233 18.4489 73.9153 18.4489V30.4489C77.1959 30.4489 79.8554 33.1083 79.8554 36.389H91.8554ZM73.9153 18.4489C73.1794 18.4489 72.4514 18.4935 71.7342 18.5807L73.183 30.4929C73.4207 30.464 73.6649 30.4489 73.9153 30.4489V18.4489ZM78.298 23.1578C76.4292 15.2449 69.3291 9.35156 60.8379 9.35156V21.3516C63.639 21.3516 66.0006 23.2962 66.6193 25.9159L78.298 23.1578ZM60.8379 9.35156C59.4619 9.35156 58.115 9.50758 56.8166 9.80536L59.499 21.5017C59.9237 21.4043 60.3709 21.3516 60.8379 21.3516V9.35156ZM63.8932 13.8915C60.3565 2.3796 49.6435 -6 36.9576 -6V6C44.2262 6 50.3896 10.799 52.4224 17.4156L63.8932 13.8915ZM36.9576 -6C25.4958 -6 15.6454 0.843733 11.2453 10.6425L22.1923 15.5582C24.7275 9.91235 30.3922 6 36.9576 6V-6ZM16.415 7.10803C3.92684 7.74111 -6 18.061 -6 30.7033H6C6 24.485 10.8848 19.4038 17.0226 19.0926L16.415 7.10803ZM-6 30.7033C-6 43.2418 3.76406 53.4951 16.1077 54.281L16.8702 42.3052C10.8045 41.919 6 36.8699 6 30.7033H-6ZM22.489 48.3291V48.2931H10.489V48.3291H22.489ZM17.5888 42.3291H16.489V54.3291H17.5888V42.3291Z" fill="#5221E6" mask="url(#path-1-inside-1_27_307)"/>
<path d="M12.2594 37.1215C11.6375 37.5115 10.8097 37.3261 10.4912 36.6648C9.32134 34.2365 9.00195 31.4698 9.60953 28.8171C10.2171 26.1644 11.7089 23.8125 13.819 22.1355C14.3936 21.6787 15.2196 21.8721 15.6097 22.4939C15.9997 23.1158 15.8041 23.9294 15.2443 24.4042C13.7248 25.6929 12.6507 27.4456 12.2006 29.4106C11.7506 31.3755 11.9548 33.421 12.7618 35.2426C13.0592 35.9137 12.8812 36.7314 12.2594 37.1215Z" fill="#5221E6"/>
<mask id="path-4-inside-2_27_307" fill="white">
<path d="M61.9747 46.339C61.9747 50.4859 59.9979 54.4629 56.4791 57.3952C52.9604 60.3275 48.1879 61.9749 43.2116 61.9749C38.2354 61.9749 33.4629 60.3275 29.9442 57.3952C26.4254 54.4629 24.4486 50.4859 24.4486 46.339L43.2116 46.339H61.9747Z"/>
</mask>
<path d="M61.9747 46.339C61.9747 50.4859 59.9979 54.4629 56.4791 57.3952C52.9604 60.3275 48.1879 61.9749 43.2116 61.9749C38.2354 61.9749 33.4629 60.3275 29.9442 57.3952C26.4254 54.4629 24.4486 50.4859 24.4486 46.339L43.2116 46.339H61.9747Z" stroke="#5221E6" stroke-width="8" mask="url(#path-4-inside-2_27_307)"/>
<mask id="path-5-outside-3_27_307" maskUnits="userSpaceOnUse" x="10.0511" y="44.0833" width="66" height="34" fill="black">
<rect fill="white" x="10.0511" y="44.0833" width="66" height="34"/>
<path fill-rule="evenodd" clip-rule="evenodd" d="M62.5698 60.3328C61.8321 61.1599 61.0164 61.9451 60.1266 62.6806C58.8798 63.7111 57.5148 64.6213 56.058 65.4024L57.487 68.8678C57.9081 69.8889 57.4216 71.0581 56.4005 71.4792L52.0875 73.2577C51.0664 73.6788 49.8972 73.1924 49.4761 72.1712L47.8553 68.2407C46.0989 68.5615 44.2926 68.727 42.4656 68.727C40.7975 68.727 39.1465 68.5891 37.5351 68.3208L35.947 72.1714C35.5259 73.1925 34.3567 73.6789 33.3355 73.2578L29.0227 71.479C28.0015 71.0578 27.5152 69.8886 27.9363 68.8675L29.2779 65.6148C27.6687 64.7879 26.1662 63.8059 24.8047 62.6806C24.0752 62.0777 23.3955 61.4413 22.7678 60.7758L19.656 62.0968C18.6392 62.5284 17.4651 62.054 17.0335 61.0372L15.2107 56.7428C14.7791 55.726 15.2534 54.5519 16.2702 54.1203L18.2884 53.2637C17.7621 51.5858 17.4893 49.8462 17.4893 48.0833H42.4656H67.442C67.442 49.6554 67.225 51.209 66.8048 52.7168L70.1114 54.1204C71.1282 54.552 71.6026 55.7261 71.171 56.7429L69.3481 61.0373C68.9165 62.054 67.7424 62.5284 66.7256 62.0968L62.5698 60.3328Z"/>
</mask>
<path d="M60.1266 62.6806L62.6749 65.7638L62.6749 65.7637L60.1266 62.6806ZM62.5698 60.3328L64.1327 56.6508L61.4933 55.5304L59.5847 57.6703L62.5698 60.3328ZM56.058 65.4024L54.168 61.8771L50.9819 63.5852L52.36 66.9273L56.058 65.4024ZM57.487 68.8678L53.7891 70.3927V70.3927L57.487 68.8678ZM56.4005 71.4792L54.8756 67.7813H54.8756L56.4005 71.4792ZM52.0875 73.2577L53.6125 76.9556L52.0875 73.2577ZM49.4761 72.1712L45.7782 73.6962L45.7782 73.6962L49.4761 72.1712ZM47.8553 68.2407L51.5532 66.7158L50.3196 63.7243L47.1365 64.3058L47.8553 68.2407ZM37.5351 68.3208L38.1919 64.3751L35.0513 63.8524L33.8373 66.7957L37.5351 68.3208ZM35.947 72.1714L39.6448 73.6965L39.6449 73.6965L35.947 72.1714ZM33.3355 73.2578L31.8104 76.9556H31.8104L33.3355 73.2578ZM29.0227 71.479L27.4975 75.1768L27.4976 75.1768L29.0227 71.479ZM27.9363 68.8675L31.6342 70.3926L31.6342 70.3926L27.9363 68.8675ZM29.2779 65.6148L32.9757 67.1399L34.3785 63.7386L31.1061 62.057L29.2779 65.6148ZM24.8047 62.6806L22.2563 65.7638L22.2563 65.7638L24.8047 62.6806ZM22.7678 60.7758L25.6776 58.0312L23.7674 56.0061L21.2049 57.0938L22.7678 60.7758ZM19.656 62.0968L21.2189 65.7788L21.2189 65.7788L19.656 62.0968ZM17.0335 61.0372L20.7155 59.4743L17.0335 61.0372ZM15.2107 56.7428L18.8927 55.1799L18.8927 55.1799L15.2107 56.7428ZM16.2702 54.1203L17.8331 57.8024H17.8331L16.2702 54.1203ZM18.2884 53.2637L19.8513 56.9457L23.1909 55.5281L22.105 52.0665L18.2884 53.2637ZM17.4893 48.0833V44.0833H13.4893V48.0833H17.4893ZM67.442 48.0833H71.442V44.0833H67.442V48.0833ZM66.8048 52.7168L62.9516 51.643L62.0086 55.0265L65.2419 56.3989L66.8048 52.7168ZM70.1114 54.1204L71.6743 50.4384L71.6743 50.4384L70.1114 54.1204ZM71.171 56.7429L67.489 55.1799V55.1799L71.171 56.7429ZM69.3481 61.0373L73.0301 62.6002L73.0301 62.6002L69.3481 61.0373ZM66.7256 62.0968L68.2885 58.4148L68.2885 58.4148L66.7256 62.0968ZM62.6749 65.7637C63.717 64.9024 64.6793 63.977 65.555 62.9953L59.5847 57.6703C58.9849 58.3428 58.3157 58.9878 57.5782 59.5974L62.6749 65.7637ZM57.948 68.9277C59.628 68.027 61.215 66.9704 62.6749 65.7638L57.5783 59.5974C56.5446 60.4517 55.4017 61.2157 54.168 61.8771L57.948 68.9277ZM61.1849 67.3428L59.7559 63.8775L52.36 66.9273L53.7891 70.3927L61.1849 67.3428ZM57.9254 75.1771C60.9889 73.9138 62.4482 70.4063 61.1849 67.3428L53.7891 70.3927C53.368 69.3715 53.8544 68.2024 54.8756 67.7813L57.9254 75.1771ZM53.6125 76.9556L57.9254 75.1771L54.8756 67.7813L50.5626 69.5598L53.6125 76.9556ZM45.7782 73.6962C47.0415 76.7596 50.549 78.2189 53.6125 76.9556L50.5626 69.5598C51.5838 69.1387 52.7529 69.6252 53.174 70.6463L45.7782 73.6962ZM44.1573 69.7656L45.7782 73.6962L53.174 70.6463L51.5532 66.7158L44.1573 69.7656ZM42.4656 72.727C44.5336 72.727 46.5805 72.5398 48.5741 72.1756L47.1365 64.3058C45.6173 64.5833 44.0516 64.727 42.4656 64.727V72.727ZM36.8784 72.2666C38.7068 72.5709 40.5774 72.727 42.4656 72.727V64.727C41.0176 64.727 39.5863 64.6072 38.1919 64.3751L36.8784 72.2666ZM39.6449 73.6965L41.233 69.846L33.8373 66.7957L32.2492 70.6463L39.6449 73.6965ZM31.8104 76.9556C34.8738 78.2191 38.3814 76.7599 39.6448 73.6965L32.2492 70.6463C32.6703 69.6252 33.8395 69.1388 34.8607 69.5599L31.8104 76.9556ZM27.4976 75.1768L31.8104 76.9556L34.8607 69.5599L30.5478 67.7812L27.4976 75.1768ZM24.2385 67.3424C22.975 70.4058 24.4342 73.9134 27.4975 75.1768L30.5478 67.7812C31.5689 68.2023 32.0553 69.3715 31.6342 70.3926L24.2385 67.3424ZM25.58 64.0897L24.2385 67.3424L31.6342 70.3926L32.9757 67.1399L25.58 64.0897ZM22.2563 65.7638C23.8505 67.0814 25.5964 68.2202 27.4497 69.1726L31.1061 62.057C29.7409 61.3555 28.4818 60.5304 27.353 59.5974L22.2563 65.7638ZM19.8581 63.5205C20.6013 64.3085 21.402 65.0576 22.2563 65.7638L27.353 59.5974C26.7484 59.0977 26.1898 58.5741 25.6776 58.0312L19.8581 63.5205ZM21.2189 65.7788L24.3308 64.4579L21.2049 57.0938L18.093 58.4147L21.2189 65.7788ZM13.3515 62.6001C14.6463 65.6504 18.1686 67.0735 21.2189 65.7788L18.0931 58.4147C19.1098 57.9832 20.2839 58.4575 20.7155 59.4743L13.3515 62.6001ZM11.5286 58.3057L13.3515 62.6001L20.7155 59.4743L18.8927 55.1799L11.5286 58.3057ZM14.7073 50.4383C11.657 51.7331 10.2339 55.2554 11.5286 58.3057L18.8927 55.1799C19.3243 56.1967 18.8499 57.3708 17.8331 57.8024L14.7073 50.4383ZM16.7255 49.5816L14.7073 50.4383L17.8331 57.8024L19.8513 56.9457L16.7255 49.5816ZM13.4893 48.0833C13.4893 50.2614 13.8267 52.4044 14.4717 54.4609L22.105 52.0665C21.6975 50.7672 21.4893 49.431 21.4893 48.0833H13.4893ZM42.4656 44.0833H17.4893V52.0833H42.4656V44.0833ZM67.442 44.0833H42.4656V52.0833H67.442V44.0833ZM70.6579 53.7907C71.1738 51.94 71.442 50.0252 71.442 48.0833H63.442C63.442 49.2855 63.2763 50.4781 62.9516 51.643L70.6579 53.7907ZM65.2419 56.3989L68.5485 57.8024L71.6743 50.4384L68.3677 49.0348L65.2419 56.3989ZM68.5485 57.8024C67.5317 57.3708 67.0574 56.1967 67.489 55.1799L74.853 58.3058C76.1478 55.2555 74.7246 51.7331 71.6743 50.4384L68.5485 57.8024ZM67.489 55.1799L65.6661 59.4743L73.0301 62.6002L74.853 58.3058L67.489 55.1799ZM65.6661 59.4743C66.0977 58.4576 67.2718 57.9832 68.2885 58.4148L65.1627 65.7788C68.213 67.0736 71.7353 65.6505 73.0301 62.6002L65.6661 59.4743ZM68.2885 58.4148L64.1327 56.6508L61.0069 64.0148L65.1627 65.7788L68.2885 58.4148Z" fill="#5221E6" mask="url(#path-5-outside-3_27_307)"/>
</svg>
