<svg width="86" height="79" viewBox="0 0 86 79" fill="none" xmlns="http://www.w3.org/2000/svg">
<mask id="path-1-inside-1_27_307" fill="white">
<path fill-rule="evenodd" clip-rule="evenodd" d="M17.5888 48.3291C17.6012 48.3291 17.6135 48.3292 17.6259 48.3292C17.6382 48.3292 17.6506 48.3291 17.6629 48.3291H74.4838V48.3158C80.8141 48.019 85.8554 42.7927 85.8554 36.389C85.8554 29.7946 80.5096 24.4489 73.9153 24.4489C73.4222 24.4489 72.9361 24.4787 72.4586 24.5368C71.2149 19.2706 66.4841 15.3516 60.8379 15.3516C59.9164 15.3516 59.0193 15.4559 58.1578 15.6535C55.3731 6.58932 46.9349 0 36.9576 0C27.944 0 20.1864 5.37804 16.7188 13.1003C7.40583 13.5724 0 21.273 0 30.7033C0 40.0558 7.28428 47.7071 16.489 48.2931V48.3291H17.5888Z"/>
</mask>
<path d="M17.5888 48.3291L17.5975 44.3291H17.5888V48.3291ZM17.6629 48.3291V44.3291L17.6543 44.3291L17.6629 48.3291ZM74.4838 48.3291V52.3291H78.4838V48.3291H74.4838ZM74.4838 48.3158L74.2965 44.3202L70.4838 44.4989V48.3158H74.4838ZM72.4586 24.5368L68.5657 25.4562L69.3884 28.9397L72.9416 28.5076L72.4586 24.5368ZM58.1578 15.6535L54.3342 16.8282L55.4265 20.3838L59.052 19.5523L58.1578 15.6535ZM16.7188 13.1003L16.9213 17.0952L19.3653 16.9713L20.3678 14.7389L16.7188 13.1003ZM16.489 48.2931H20.489V44.5396L16.7431 44.3012L16.489 48.2931ZM16.489 48.3291H12.489V52.3291H16.489V48.3291ZM17.5802 52.3291C17.5958 52.3291 17.6111 52.3292 17.6259 52.3292V44.3292C17.616 44.3292 17.6065 44.3291 17.5975 44.3291L17.5802 52.3291ZM17.6259 52.3292C17.6407 52.3292 17.656 52.3291 17.6716 52.3291L17.6543 44.3291C17.6452 44.3291 17.6358 44.3292 17.6259 44.3292V52.3292ZM74.4838 44.3291H17.6629V52.3291H74.4838V44.3291ZM70.4838 48.3158V48.3291H78.4838V48.3158H70.4838ZM74.6711 52.3114C83.1253 51.9151 89.8554 44.9391 89.8554 36.389H81.8554C81.8554 40.6463 78.503 44.123 74.2965 44.3202L74.6711 52.3114ZM89.8554 36.389C89.8554 27.5855 82.7188 20.4489 73.9153 20.4489V28.4489C78.3005 28.4489 81.8554 32.0038 81.8554 36.389H89.8554ZM73.9153 20.4489C73.2603 20.4489 72.6129 20.4886 71.9757 20.5661L72.9416 28.5076C73.2592 28.4689 73.584 28.4489 73.9153 28.4489V20.4489ZM76.3515 23.6174C74.6911 16.5868 68.3808 11.3516 60.8379 11.3516V19.3516C64.5874 19.3516 67.7387 21.9543 68.5657 25.4562L76.3515 23.6174ZM60.8379 11.3516C59.6134 11.3516 58.4164 11.4904 57.2636 11.7548L59.052 19.5523C59.6222 19.4215 60.2194 19.3516 60.8379 19.3516V11.3516ZM61.9814 14.4788C58.6954 3.78284 48.7406 -4 36.9576 -4V4C45.1291 4 52.0508 9.39581 54.3342 16.8282L61.9814 14.4788ZM36.9576 -4C26.3119 -4 17.1591 2.35517 13.0698 11.4618L20.3678 14.7389C23.2138 8.40091 29.5761 4 36.9576 4V-4ZM16.5163 9.10546C5.0865 9.68488 -4 19.1317 -4 30.7033H4C4 23.4143 9.72516 17.46 16.9213 17.0952L16.5163 9.10546ZM-4 30.7033C-4 42.1798 4.93747 51.5658 16.2348 52.285L16.7431 44.3012C9.6311 43.8484 4 37.9319 4 30.7033H-4ZM20.489 48.3291V48.2931H12.489V48.3291H20.489ZM17.5888 44.3291H16.489V52.3291H17.5888V44.3291Z" fill="#6D8DFF" mask="url(#path-1-inside-1_27_307)"/>
<path d="M10.9245 36.3031C10.5324 36.5491 10.0121 36.4318 9.796 36.0225C8.74419 34.0309 8.31034 31.763 8.56134 29.5118C8.81233 27.2606 9.73501 25.144 11.1997 23.4329C11.5006 23.0812 12.034 23.0815 12.3623 23.4078C12.6906 23.7341 12.689 24.2625 12.3926 24.6181C11.1925 26.0576 10.4362 27.8227 10.2272 29.6975C10.0182 31.5723 10.3671 33.4607 11.2207 35.1292C11.4315 35.5413 11.3167 36.0571 10.9245 36.3031Z" fill="#6D8DFF"/>
<mask id="path-4-inside-2_27_307" fill="white">
<path d="M61.9747 46.339C61.9747 50.4859 59.9979 54.4629 56.4791 57.3952C52.9604 60.3275 48.1879 61.9749 43.2116 61.9749C38.2354 61.9749 33.4629 60.3275 29.9442 57.3952C26.4254 54.4629 24.4486 50.4859 24.4486 46.339L43.2116 46.339H61.9747Z"/>
</mask>
<path d="M61.9747 46.339C61.9747 50.4859 59.9979 54.4629 56.4791 57.3952C52.9604 60.3275 48.1879 61.9749 43.2116 61.9749C38.2354 61.9749 33.4629 60.3275 29.9442 57.3952C26.4254 54.4629 24.4486 50.4859 24.4486 46.339L43.2116 46.339H61.9747Z" stroke="#6D8DFF" stroke-width="8" mask="url(#path-4-inside-2_27_307)"/>
<mask id="path-5-outside-3_27_307" maskUnits="userSpaceOnUse" x="10" y="45" width="66" height="34" fill="black">
<rect fill="white" x="10" y="45" width="66" height="34"/>
<path fill-rule="evenodd" clip-rule="evenodd" d="M62.5187 61.2496C61.781 62.0766 60.9652 62.8619 60.0754 63.5973C58.8287 64.6278 57.4637 65.5381 56.0068 66.3192L57.4358 69.7845C57.8569 70.8057 57.3705 71.9748 56.3493 72.3959L52.0364 74.1745C51.0152 74.5956 49.8461 74.1091 49.425 73.088L47.8041 69.1574C46.0478 69.4783 44.2414 69.6437 42.4145 69.6437C40.7463 69.6437 39.0954 69.5058 37.484 69.2376L35.8959 73.0882C35.4747 74.1093 34.3055 74.5957 33.2844 74.1745L28.9715 72.3957C27.9504 71.9746 27.464 70.8054 27.8852 69.7843L29.2267 66.5315C27.6175 65.7046 26.115 64.7227 24.7535 63.5973C24.0241 62.9944 23.3444 62.3581 22.7167 61.6926L19.6048 63.0135C18.5881 63.4451 17.414 62.9707 16.9824 61.954L15.1595 57.6596C14.7279 56.6428 15.2023 55.4687 16.2191 55.0371L18.2372 54.1804C17.7109 52.5026 17.4381 50.7629 17.4381 49L42.4145 49H67.3908C67.3908 50.5721 67.1739 52.1258 66.7537 53.6336L70.0603 55.0372C71.077 55.4687 71.5514 56.6429 71.1198 57.6596L69.2969 61.954C68.8653 62.9708 67.6912 63.4451 66.6744 63.0136L62.5187 61.2496Z"/>
</mask>
<path d="M60.0754 63.5973L62.6238 66.6805L62.6238 66.6805L60.0754 63.5973ZM62.5187 61.2496L64.0816 57.5675L61.4421 56.4472L59.5335 58.5871L62.5187 61.2496ZM56.0068 66.3192L54.1168 62.7938L50.9307 64.502L52.3089 67.8441L56.0068 66.3192ZM57.4358 69.7845L61.1338 68.2596V68.2596L57.4358 69.7845ZM56.3493 72.3959L54.8244 68.698H54.8244L56.3493 72.3959ZM52.0364 74.1745L53.5613 77.8724H53.5613L52.0364 74.1745ZM49.425 73.088L53.1229 71.5631V71.5631L49.425 73.088ZM47.8041 69.1574L51.502 67.6325L50.2684 64.6411L47.0853 65.2226L47.8041 69.1574ZM37.484 69.2376L38.1407 65.2919L35.0001 64.7691L33.7862 67.7125L37.484 69.2376ZM35.8959 73.0882L39.5937 74.6133L39.5937 74.6133L35.8959 73.0882ZM33.2844 74.1745L31.7593 77.8724L31.7593 77.8724L33.2844 74.1745ZM28.9715 72.3957L27.4464 76.0936H27.4464L28.9715 72.3957ZM27.8852 69.7843L31.583 71.3094L31.583 71.3094L27.8852 69.7843ZM29.2267 66.5315L32.9246 68.0567L34.3274 64.6554L31.0549 62.9738L29.2267 66.5315ZM24.7535 63.5973L22.2052 66.6805L22.2052 66.6805L24.7535 63.5973ZM22.7167 61.6926L25.6265 58.9479L23.7163 56.9229L21.1538 58.0106L22.7167 61.6926ZM19.6048 63.0135L21.1678 66.6955L21.1678 66.6955L19.6048 63.0135ZM16.9824 61.954L13.3003 63.5169L13.3003 63.5169L16.9824 61.954ZM15.1595 57.6596L18.8415 56.0966L18.8415 56.0966L15.1595 57.6596ZM16.2191 55.0371L14.6561 51.3551L14.6561 51.3551L16.2191 55.0371ZM18.2372 54.1804L19.8002 57.8624L23.1397 56.4449L22.0539 52.9832L18.2372 54.1804ZM17.4381 49L17.4381 45L13.4381 45V49H17.4381ZM42.4145 49V45V49ZM67.3908 49H71.3908V45H67.3908V49ZM66.7537 53.6336L62.9005 52.5597L61.9575 55.9432L65.1907 57.3156L66.7537 53.6336ZM70.0603 55.0372L71.6232 51.3551L71.6232 51.3551L70.0603 55.0372ZM71.1198 57.6596L74.8018 59.2226V59.2226L71.1198 57.6596ZM69.2969 61.954L65.6149 60.3911V60.3911L69.2969 61.954ZM66.6744 63.0136L68.2374 59.3315L68.2374 59.3315L66.6744 63.0136ZM62.6238 66.6805C63.6659 65.8191 64.6282 64.8938 65.5038 63.9121L59.5335 58.5871C58.9337 59.2595 58.2646 59.9046 57.5271 60.5142L62.6238 66.6805ZM57.8968 69.8445C59.5768 68.9438 61.1639 67.8872 62.6238 66.6805L57.5271 60.5141C56.4935 61.3684 55.3505 62.1324 54.1168 62.7938L57.8968 69.8445ZM61.1338 68.2596L59.7047 64.7942L52.3089 67.8441L53.7379 71.3094L61.1338 68.2596ZM57.8743 76.0938C60.9377 74.8306 62.397 71.323 61.1338 68.2596L53.7379 71.3094C53.3168 70.2883 53.8033 69.1191 54.8244 68.698L57.8743 76.0938ZM53.5613 77.8724L57.8743 76.0938L54.8244 68.698L50.5115 70.4766L53.5613 77.8724ZM45.7271 74.6129C46.9903 77.6764 50.4979 79.1357 53.5613 77.8724L50.5115 70.4766C51.5326 70.0555 52.7018 70.5419 53.1229 71.5631L45.7271 74.6129ZM44.1062 70.6824L45.7271 74.6129L53.1229 71.5631L51.502 67.6325L44.1062 70.6824ZM42.4145 73.6437C44.4824 73.6437 46.5293 73.4565 48.5229 73.0923L47.0853 65.2226C45.5662 65.5001 44.0005 65.6437 42.4145 65.6437V73.6437ZM36.8272 73.1833C38.6556 73.4876 40.5262 73.6437 42.4145 73.6437V65.6437C40.9664 65.6437 39.5352 65.524 38.1407 65.2919L36.8272 73.1833ZM39.5937 74.6133L41.1818 70.7627L33.7862 67.7125L32.198 71.563L39.5937 74.6133ZM31.7593 77.8724C34.8227 79.1358 38.3302 77.6767 39.5937 74.6133L32.198 71.563C32.6192 70.5419 33.7884 70.0555 34.8095 70.4767L31.7593 77.8724ZM27.4464 76.0936L31.7593 77.8724L34.8095 70.4767L30.4967 68.6979L27.4464 76.0936ZM24.1873 68.2591C22.9239 71.3225 24.383 74.8301 27.4464 76.0936L30.4967 68.6979C31.5178 69.1191 32.0042 70.2883 31.583 71.3094L24.1873 68.2591ZM25.5289 65.0064L24.1873 68.2591L31.583 71.3094L32.9246 68.0567L25.5289 65.0064ZM22.2052 66.6805C23.7994 67.9982 25.5453 69.137 27.3985 70.0893L31.0549 62.9738C29.6898 62.2723 28.4306 61.4471 27.3019 60.5142L22.2052 66.6805ZM19.8069 64.4373C20.5502 65.2252 21.3508 65.9744 22.2052 66.6805L27.3019 60.5142C26.6973 60.0145 26.1386 59.4909 25.6265 58.9479L19.8069 64.4373ZM21.1678 66.6955L24.2796 65.3746L21.1538 58.0106L18.0419 59.3315L21.1678 66.6955ZM13.3003 63.5169C14.5951 66.5672 18.1175 67.9903 21.1678 66.6955L18.0419 59.3315C19.0587 58.8999 20.2328 59.3743 20.6644 60.391L13.3003 63.5169ZM11.4775 59.2225L13.3003 63.5169L20.6644 60.391L18.8415 56.0966L11.4775 59.2225ZM14.6561 51.3551C11.6058 52.6498 10.1827 56.1722 11.4775 59.2225L18.8415 56.0966C19.2731 57.1134 18.7987 58.2875 17.782 58.7191L14.6561 51.3551ZM16.6743 50.4984L14.6561 51.3551L17.782 58.7191L19.8002 57.8624L16.6743 50.4984ZM13.4381 49C13.4381 51.1781 13.7755 53.3211 14.4206 55.3776L22.0539 52.9832C21.6463 51.684 21.4381 50.3477 21.4381 49H13.4381ZM42.4145 45L17.4381 45L17.4381 53L42.4145 53V45ZM67.3908 45H42.4145V53H67.3908V45ZM70.6068 54.7075C71.1226 52.8567 71.3908 50.942 71.3908 49H63.3908C63.3908 50.2023 63.2251 51.3949 62.9005 52.5597L70.6068 54.7075ZM65.1907 57.3156L68.4974 58.7192L71.6232 51.3551L68.3166 49.9516L65.1907 57.3156ZM68.4974 58.7192C67.4806 58.2876 67.0062 57.1134 67.4378 56.0967L74.8018 59.2226C76.0966 56.1723 74.6735 52.6499 71.6232 51.3551L68.4974 58.7192ZM67.4378 56.0967L65.6149 60.3911L72.9789 63.517L74.8018 59.2226L67.4378 56.0967ZM65.6149 60.3911C66.0465 59.3743 67.2206 58.9 68.2374 59.3315L65.1115 66.6956C68.1618 67.9903 71.6842 66.5672 72.9789 63.517L65.6149 60.3911ZM68.2374 59.3315L64.0816 57.5675L60.9558 64.9316L65.1115 66.6956L68.2374 59.3315Z" fill="#6D8DFF" mask="url(#path-5-outside-3_27_307)"/>
</svg>
