<svg width="130" height="73" viewBox="0 0 130 73" fill="none" xmlns="http://www.w3.org/2000/svg">
<g clip-path="url(#clip0_27_413)">
<path fill-rule="evenodd" clip-rule="evenodd" d="M19.6103 88.3615V80.0527C19.6103 78.9609 20.2928 78.0839 21.4231 78.0839H21.736C22.8658 78.0839 23.5453 78.9619 23.5453 80.0527V97.5453C23.5453 101.811 21.4379 105.205 17.7654 107.367C16.0831 108.364 14.1627 108.888 12.2074 108.883H11.4268C7.1602 108.883 3.77055 106.774 1.60473 103.104C0.606621 101.422 0.0829605 99.5012 0.0894144 97.5453V96.7658C0.0894144 92.4986 2.19785 89.1065 5.86731 86.9401C7.5493 85.9414 9.47069 85.4175 11.4268 85.4243H12.2074C15.0948 85.4243 17.5445 86.5435 19.6103 88.3615ZM4.02395 97.1548C4.02395 100.236 5.51743 102.553 8.21747 104.031C9.30927 104.628 10.4945 104.949 11.7402 104.949C14.7647 104.949 17.0082 103.522 18.5555 100.959C19.2751 99.7665 19.6103 98.4619 19.6103 97.0751C19.6103 94.404 18.3458 92.3194 16.1932 90.7711C14.8881 89.8326 13.419 89.3619 11.8168 89.3619C8.52012 89.3619 6.14762 91.0275 4.72371 93.986C4.24332 94.9864 4.02395 96.0483 4.02395 97.1548ZM37.1963 85.4243H37.7417C42.3009 85.4243 45.7682 87.6358 47.9655 91.6156C48.844 93.2076 49.3143 94.9453 49.3143 96.7658V97.5453C49.3143 101.811 47.2109 105.21 43.5328 107.368C41.8301 108.367 39.9492 108.883 37.9758 108.883H37.1963C32.9297 108.883 29.539 106.774 27.3742 103.104C26.3756 101.422 25.8514 99.5013 25.8574 97.5453V96.7658C25.8574 92.4981 27.9744 89.1171 31.6348 86.9411C33.3364 85.9301 35.2189 85.4243 37.1963 85.4243ZM29.7924 97.1548C29.7924 100.146 31.26 102.346 33.7864 103.893C34.9726 104.62 36.2792 104.949 37.665 104.949C40.6205 104.949 42.8051 103.45 44.3255 100.956C45.0507 99.7665 45.3787 98.4599 45.3787 97.0751C45.3787 94.2938 44.0391 92.1691 41.7489 90.6294C40.4941 89.7849 39.0971 89.3619 37.5858 89.3619C34.2891 89.3619 31.9166 91.0275 30.4932 93.986C30.0118 94.9864 29.7924 96.0483 29.7924 97.1548ZM65.6724 89.6762C65.0783 89.3979 63.9662 89.3055 63.3243 89.2812C60.0367 89.1572 57.6581 91.0087 56.2627 93.9089C55.7808 94.9092 55.5609 95.968 55.5609 97.0751C55.5609 100.445 57.3306 102.805 60.3389 104.244C61.4378 104.769 62.8566 104.868 64.0576 104.868C65.1138 104.868 66.6068 104.222 67.5442 103.776L67.7067 103.699H68.4344L68.5147 103.715C69.4094 103.902 70.0848 104.469 70.0848 105.432V105.821C70.0848 108.217 65.7065 108.765 64.0358 108.882C58.14 109.29 53.7307 106.052 52.0499 100.429C51.7579 99.4521 51.6263 98.4822 51.6263 97.4646V96.6861C51.6263 92.4189 53.7439 89.0389 57.4037 86.865C59.1054 85.8544 60.9874 85.3466 62.9643 85.3466H63.7443C65.8415 85.3466 67.7733 85.9423 69.5049 87.125L69.6471 87.2235L69.737 87.3718C69.9238 87.6815 70.0848 88.0401 70.0848 88.4087V88.7982C70.0848 89.8027 69.3333 90.343 68.4263 90.5177L68.3512 90.5309H68.1186C67.5315 90.5309 66.1965 89.923 65.6724 89.6762ZM78.4358 92.3407C79.9643 90.8102 81.4979 89.2827 83.0493 87.7775C83.4814 87.3576 85.1181 85.5802 85.7625 85.5802H86.4674L86.5476 85.597C87.4454 85.7833 88.1178 86.3516 88.1178 87.3164V87.7054C88.1178 88.3635 87.3469 89.1283 86.9219 89.5787C86.018 90.537 85.0663 91.4637 84.1411 92.4022L79.3869 97.2284C81.4339 99.28 83.4789 101.333 85.5091 103.4C86.0722 103.971 86.631 104.546 87.1854 105.125C87.3809 105.331 87.6694 105.587 87.8334 105.871C88.0096 106.138 88.1178 106.44 88.1178 106.761V107.167L88.0949 107.261C87.874 108.159 87.3042 108.883 86.3094 108.883H85.9961C85.3451 108.883 84.6098 108.147 84.1639 107.726C83.2448 106.86 82.3576 105.949 81.4568 105.063L78.4358 102.098V106.838C78.4358 107.93 77.7523 108.807 76.6234 108.807H76.3137C75.1833 108.807 74.5008 107.93 74.5008 106.838V80.1289C74.5008 79.0371 75.1838 78.1636 76.3137 78.1636H76.6234C77.7523 78.1636 78.4358 79.0371 78.4358 80.1289V92.3407ZM127.479 85.5802H127.87C129.05 85.5802 129.838 86.3755 129.838 87.549C129.838 89.1781 128.28 89.595 126.933 89.595C125.166 89.595 123.478 90.6649 122.26 91.8649C120.741 93.3624 120.076 95.2804 120.076 97.3889V106.915C120.076 108.007 119.394 108.883 118.264 108.883H117.953C116.822 108.883 116.14 108.007 116.14 106.915V96.842C116.14 92.974 118.023 89.8164 121.163 87.6018C123.037 86.279 125.184 85.5807 127.479 85.5807V85.5802ZM99.5116 104.459C100.944 104.959 102.576 104.887 104.045 104.631C104.797 104.312 106.718 103.473 107.425 103.596L107.536 103.615L107.637 103.665C108.069 103.874 108.481 104.17 108.701 104.609C109.216 105.639 108.969 106.674 107.957 107.258L107.62 107.453C103.888 109.607 99.9178 109.308 96.1971 107.296C94.4182 106.335 93.0573 104.907 92.0533 103.167L91.8187 102.76C89.4223 98.6102 89.7458 94.245 92.4484 90.2988C93.3812 88.9348 94.6005 87.8811 96.0259 87.0569L96.5652 86.7456C100.08 84.7164 103.848 84.8556 107.458 86.6365C109.399 87.5942 110.972 89.0217 112.056 90.899L112.251 91.2373C113.038 92.6012 112.018 93.7895 110.965 94.602C109.743 95.5445 108.51 96.679 107.339 97.6895C104.728 99.9437 102.121 102.203 99.5116 104.459ZM96.1321 102.085C99.052 99.5816 101.973 97.0756 104.885 94.5614C105.881 93.7032 106.972 92.8125 107.959 91.9101C107.167 90.9117 105.843 90.1922 104.719 89.7631C102.449 88.8983 100.211 89.1887 98.1298 90.3902C95.4054 91.9634 94.245 94.4685 94.3466 97.5859C94.3872 98.8138 94.7173 99.997 95.3688 101.042C95.5984 101.41 95.8548 101.756 96.1321 102.085ZM74.8964 23.2335H86.508V35.1037H92.3788C95.0905 35.1037 97.8789 34.6207 100.446 33.7508C101.708 33.3228 103.124 32.7276 104.369 31.9786C102.73 29.8387 101.893 27.1366 101.647 24.4731C101.312 20.8499 102.043 16.1343 104.495 13.2987L105.716 11.887L107.17 13.0565C110.832 15.9982 113.912 20.1095 114.454 24.7961C118.864 23.4991 124.041 23.8058 127.927 26.0488L129.522 26.969L128.683 28.6072C125.396 35.0219 118.524 37.0095 111.805 36.6576C101.752 61.6973 79.8648 73.5517 53.327 73.5517C39.6161 73.5517 27.0375 68.4263 19.8743 56.2622L19.757 56.0641L18.7135 53.9404C16.2922 48.5861 15.4878 42.7203 16.0332 36.8592L16.1972 35.1037H26.127V23.2335H37.7382V11.6219H60.962V0.0102539H74.8964V23.2335Z" fill="#364548"/>
<path fill-rule="evenodd" clip-rule="evenodd" d="M112.516 27.6251C113.295 21.574 108.766 16.8214 105.958 14.5647C102.722 18.3063 102.219 28.1121 107.296 32.2406C104.463 34.7574 98.4923 37.0384 92.3787 37.0384H17.9613C17.3672 43.4201 18.4874 49.297 21.0463 54.3269L21.8928 55.8758C22.4288 56.7848 23.0145 57.6637 23.6473 58.5083C26.7069 58.7048 29.5278 58.7723 32.1085 58.7154H32.1095C37.181 58.6037 41.3192 58.0045 44.4554 56.9178C44.6771 56.8488 44.917 56.8688 45.1243 56.9735C45.3315 57.0782 45.4899 57.2594 45.566 57.4788C45.642 57.6982 45.6298 57.9385 45.5318 58.1491C45.4338 58.3596 45.2578 58.5237 45.0409 58.6068C44.6235 58.752 44.1888 58.8871 43.7399 59.0156H43.7384C41.2689 59.7209 38.6207 60.1952 35.2041 60.4059C35.4072 60.4095 34.9928 60.4364 34.9918 60.4364C34.8755 60.444 34.7293 60.4608 34.6125 60.4669C33.2678 60.5425 31.8165 60.5583 30.3326 60.5583C28.7097 60.5583 27.1116 60.5278 25.3246 60.4364L25.2789 60.4669C31.4793 67.4361 41.1744 71.6159 53.3274 71.6159C79.0471 71.6159 100.863 60.2145 110.523 34.6182C117.377 35.3215 123.964 33.5736 126.96 27.7247C122.187 24.9708 116.05 25.8488 112.516 27.6251Z" fill="#22A0C8"/>
<path fill-rule="evenodd" clip-rule="evenodd" d="M112.516 27.6251C113.295 21.574 108.766 16.8214 105.958 14.5647C102.722 18.3063 102.219 28.1121 107.296 32.2407C104.463 34.7574 98.4923 37.0385 92.3788 37.0385H22.3681C22.0645 46.8119 25.6913 54.2305 32.108 58.7155H32.1095C37.181 58.6038 41.3192 58.0046 44.4555 56.9179C44.6772 56.8489 44.917 56.8689 45.1243 56.9736C45.3315 57.0783 45.4899 57.2595 45.566 57.4789C45.642 57.6982 45.6298 57.9386 45.5318 58.1491C45.4338 58.3596 45.2578 58.5238 45.041 58.6068C44.6235 58.7521 44.1888 58.8871 43.7399 59.0156H43.7384C41.2689 59.721 38.3932 60.2562 34.9766 60.467C34.9756 60.467 34.8938 60.3882 34.8928 60.3882C43.646 64.8783 56.3378 64.8621 70.8891 59.2726C87.2052 53.0041 102.388 41.0624 112.982 27.4037C112.822 27.4759 112.667 27.5495 112.516 27.6251Z" fill="#37B1D9"/>
<path fill-rule="evenodd" clip-rule="evenodd" d="M18.101 44.7922C18.5631 48.2108 19.5635 51.4116 21.0463 54.3269L21.8928 55.8758C22.4287 56.7849 23.0144 57.6637 23.6473 58.5083C26.7074 58.7048 29.5283 58.7723 32.1095 58.7154C37.181 58.6037 41.3192 58.0045 44.4555 56.9178C44.6772 56.8488 44.917 56.8688 45.1243 56.9735C45.3315 57.0782 45.4899 57.2594 45.566 57.4788C45.642 57.6982 45.6298 57.9385 45.5318 58.149C45.4338 58.3596 45.2578 58.5237 45.041 58.6068C44.6235 58.752 44.1889 58.8871 43.7399 59.0156H43.7384C41.2689 59.7209 38.4084 60.2257 34.9918 60.4369C34.8745 60.444 34.6699 60.4456 34.5516 60.4522C33.2079 60.5273 31.7713 60.5735 30.2869 60.5735C28.6645 60.5735 27.005 60.5426 25.219 60.4517C31.4194 67.4209 41.1745 71.6159 53.3275 71.6159C75.3462 71.6159 94.503 63.2583 105.622 44.7922H18.101Z" fill="#1B81A5"/>
<path fill-rule="evenodd" clip-rule="evenodd" d="M23.038 44.7922C24.3542 50.7946 27.5174 55.5066 32.1095 58.7154C37.1811 58.6037 41.3192 58.0045 44.4555 56.9178C44.6772 56.8488 44.917 56.8688 45.1243 56.9735C45.3315 57.0782 45.49 57.2594 45.566 57.4788C45.6421 57.6982 45.6298 57.9385 45.5318 58.1491C45.4338 58.3596 45.2578 58.5237 45.041 58.6068C44.6236 58.752 44.1889 58.8871 43.74 59.0156H43.7384C41.2689 59.7209 38.348 60.2257 34.9309 60.4369C43.6836 64.926 56.3388 64.8615 70.8891 59.2725C79.6916 55.8905 88.1634 50.856 95.7638 44.7922H23.038Z" fill="#1D91B4"/>
<path fill-rule="evenodd" clip-rule="evenodd" d="M28.0618 25.1687H38.1256V35.2326H28.0618V25.1687ZM28.9002 26.0077H29.6944V34.3942H28.9002V26.0077ZM30.3931 26.0077H31.2193V34.3942H30.3936V26.0077H30.3931ZM31.9176 26.0077H32.7438V34.3942H31.9176V26.0077ZM33.4431 26.0077H34.2688V34.3942H33.4431V26.0077ZM34.968 26.0077H35.7937V34.3942H34.968V26.0077ZM36.4925 26.0077H37.2872V34.3942H36.4925V26.0077ZM39.6734 13.5571H49.7377V23.6204H39.6729V13.5571H39.6734ZM40.5123 14.396H41.306V22.782H40.5123V14.396ZM42.0053 14.396H42.831V22.782H42.0058V14.396H42.0053ZM43.5297 14.396H44.3554V22.782H43.5297V14.396ZM45.0547 14.396H45.8804V22.782H45.0547V14.396ZM46.5797 14.396H47.4059V22.782H46.5797V14.396ZM48.1041 14.396H48.8993V22.782H48.1041V14.396Z" fill="#23A3C2"/>
<path fill-rule="evenodd" clip-rule="evenodd" d="M39.6734 25.1687H49.7377V35.2325H39.6729V25.1687H39.6734ZM40.5123 26.0076H41.306V34.3941H40.5123V26.0076ZM42.0052 26.0076H42.8309V34.3941H42.0057V26.0076H42.0052ZM43.5297 26.0076H44.3554V34.3941H43.5297V26.0076ZM45.0546 26.0076H45.8804V34.3941H45.0546V26.0076ZM46.5796 26.0076H47.4058V34.3941H46.5796V26.0076ZM48.1041 26.0076H48.8993V34.3941H48.1041V26.0076Z" fill="#34BBDE"/>
<path fill-rule="evenodd" clip-rule="evenodd" d="M51.2854 25.1687H61.3492V35.2325H51.2854V25.1687ZM52.1238 26.0076H52.9175V34.3941H52.1238V26.0076ZM53.6168 26.0076H54.4425V34.3941H53.6168V26.0076ZM55.1417 26.0076H55.9674V34.3941H55.1417V26.0076ZM56.6667 26.0076H57.4924V34.3941H56.6667V26.0076ZM58.1911 26.0076H59.0178V34.3941H58.1911V26.0076ZM59.7161 26.0076H60.5103V34.3941H59.7161V26.0076Z" fill="#23A3C2"/>
<path fill-rule="evenodd" clip-rule="evenodd" d="M51.2854 13.5571H61.3492V23.6204H51.2854V13.5571ZM52.1238 14.396H52.9175V22.782H52.1238V14.396ZM53.6168 14.396H54.4425V22.782H53.6168V14.396ZM55.1417 14.396H55.9674V22.782H55.1417V14.396ZM56.6667 14.396H57.4924V22.782H56.6667V14.396ZM58.1911 14.396H59.0179V22.782H58.1911V14.396ZM59.7161 14.396H60.5103V22.782H59.7161V14.396ZM62.897 25.1687H72.9609V35.2326H62.897V25.1687ZM63.7359 26.0077H64.5297V34.3942H63.7359V26.0077ZM65.2289 26.0077H66.0546V34.3942H65.2289V26.0077ZM66.7534 26.0077H67.5791V34.3942H66.7534V26.0077ZM68.2783 26.0077H69.1045V34.3942H68.2783V26.0077ZM69.8033 26.0077H70.6295V34.3942H69.8033V26.0077ZM71.3283 26.0077H72.1225V34.3942H71.3283V26.0077Z" fill="#34BBDE"/>
<path fill-rule="evenodd" clip-rule="evenodd" d="M62.8971 13.5571H72.9609V23.6205H62.8971V13.5571ZM63.736 14.396H64.5297V22.7821H63.736V14.396ZM65.229 14.396H66.0547V22.7821H65.229V14.396ZM66.7534 14.396H67.5791V22.7821H66.7534V14.396ZM68.2784 14.396H69.1046V22.7821H68.2784V14.396ZM69.8034 14.396H70.6296V22.7821H69.8034V14.396ZM71.3283 14.396H72.1225V22.7821H71.3283V14.396Z" fill="#23A3C2"/>
<path fill-rule="evenodd" clip-rule="evenodd" d="M62.8971 1.94507H72.9609V12.0099H62.8971V1.94507ZM63.736 2.78347H64.5297V11.1705H63.736V2.78296V2.78347ZM65.229 2.78347H66.0547V11.1705H65.229V2.78296V2.78347ZM66.7534 2.78347H67.5791V11.1705H66.7534V2.78296V2.78347ZM68.2784 2.78347H69.1046V11.1705H68.2784V2.78296V2.78347ZM69.8034 2.78347H70.6296V11.1705H69.8034V2.78296V2.78347ZM71.3283 2.78347H72.1225V11.1705H71.3283V2.78296V2.78347Z" fill="#34BBDE"/>
<path fill-rule="evenodd" clip-rule="evenodd" d="M74.5088 25.1687H84.5725V35.2325H74.5088V25.1687ZM75.3467 26.0076H76.1414V34.3941H75.3472V26.0076H75.3467ZM76.8396 26.0076H77.6658V34.3941H76.8401V26.0076H76.8396ZM78.3651 26.0076H79.1913V34.3941H78.3651V26.0076ZM79.8895 26.0076H80.7157V34.3941H79.8895V26.0076ZM81.415 26.0076H82.2407V34.3941H81.415V26.0076ZM82.9394 26.0076H83.7336V34.3941H82.9394V26.0076Z" fill="#23A3C2"/>
<path fill-rule="evenodd" clip-rule="evenodd" d="M49.1075 51.5491C49.4753 51.5442 49.8404 51.6124 50.1815 51.7497C50.5227 51.8871 50.8332 52.0909 51.095 52.3492C51.3568 52.6076 51.5647 52.9154 51.7065 53.2547C51.8483 53.5941 51.9213 53.9582 51.9213 54.3261C51.9212 54.6939 51.8481 55.058 51.7061 55.3973C51.5641 55.7366 51.3562 56.0443 51.0943 56.3026C50.8324 56.5608 50.5218 56.7645 50.1806 56.9017C49.8394 57.039 49.4743 57.107 49.1065 57.102C48.3766 57.092 47.68 56.795 47.1675 56.2753C46.655 55.7556 46.3677 55.055 46.3678 54.325C46.3679 53.5951 46.6555 52.8946 47.1682 52.3751C47.6809 51.8555 48.3776 51.5588 49.1075 51.5491Z" fill="#D3ECEC"/>
<path fill-rule="evenodd" clip-rule="evenodd" d="M49.1075 52.3367C49.3614 52.3367 49.6036 52.3844 49.8271 52.4713C49.6729 52.5608 49.5525 52.6986 49.4844 52.8633C49.4164 53.0281 49.4045 53.2107 49.4506 53.383C49.4967 53.5552 49.5983 53.7074 49.7396 53.8161C49.8809 53.9249 50.054 53.9841 50.2323 53.9845C50.5395 53.9845 50.8061 53.8144 50.9443 53.5625C51.1078 53.9565 51.1403 54.3926 51.0369 54.8064C50.9336 55.2203 50.6999 55.5899 50.3703 55.8607C50.0408 56.1316 49.6329 56.2892 49.2068 56.3104C48.7808 56.3316 48.3593 56.2152 48.0045 55.9784C47.6497 55.7416 47.3804 55.397 47.2365 54.9954C47.0926 54.5939 47.0817 54.1567 47.2054 53.7484C47.329 53.3402 47.5807 52.9826 47.9232 52.7283C48.2657 52.4741 48.6809 52.3368 49.1075 52.3367ZM0 45.7956H129.15C126.339 45.0826 120.254 44.1188 121.257 40.4331C116.143 46.3501 103.812 44.5845 100.7 41.6671C97.2344 46.6934 77.059 44.7825 75.6519 40.8668C71.307 45.9657 57.8444 45.9657 53.4996 40.8668C52.0914 44.7825 31.9165 46.6934 28.4507 41.6666C25.3388 44.5845 13.0081 46.3501 7.89445 40.4336C8.89789 44.1188 2.81277 45.0826 0 45.7961" fill="#364548"/>
<path fill-rule="evenodd" clip-rule="evenodd" d="M56.4875 72.556C49.6117 69.2933 45.8382 64.8576 43.7384 60.0161C41.1841 60.7448 38.1143 61.211 34.547 61.4111C33.2033 61.4862 31.7896 61.5248 30.3067 61.5248C28.5964 61.5248 26.7942 61.474 24.9021 61.374C31.2076 67.6759 38.9644 72.5276 53.3274 72.6159C54.3877 72.6159 55.4399 72.5956 56.4875 72.556Z" fill="#BDD9D7"/>
<path fill-rule="evenodd" clip-rule="evenodd" d="M46.2923 63.4839C45.3411 62.1925 44.4184 60.5696 43.74 59.0151C41.1857 59.7449 38.1149 60.211 34.547 60.4116C36.9977 61.7416 40.5021 62.9741 46.2928 63.4839" fill="#D3ECEC"/>
</g>
<defs>
<clipPath id="clip0_27_413">
<rect width="130" height="73" fill="white"/>
</clipPath>
</defs>
</svg>
