<svg width="74" height="74" viewBox="0 0 74 74" fill="none" xmlns="http://www.w3.org/2000/svg">
<path fill-rule="evenodd" clip-rule="evenodd" d="M69.8888 53.4444H41.1112V69.8888H69.8888V53.4444ZM69.8888 4.11112H41.1112V37H69.8888V4.11112ZM24.6667 37H4.11112V69.8888H24.6667V37ZM24.6667 4.11112H4.11112V20.5556H24.6667V4.11112ZM41.1112 0C38.8405 0 37 1.84063 37 4.11112V37C37 39.2706 38.8405 41.1112 41.1112 41.1112H69.8888C72.1595 41.1112 74 39.2706 74 37V4.11112C74 1.84063 72.1595 0 69.8888 0H41.1112ZM41.1112 49.3333C38.8405 49.3333 37 51.1738 37 53.4444V69.8888C37 72.1595 38.8405 74 41.1112 74H69.8888C72.1595 74 74 72.1595 74 69.8888V53.4444C74 51.1738 72.1595 49.3333 69.8888 49.3333H41.1112ZM0 37C0 34.7296 1.84063 32.8888 4.11112 32.8888H24.6667C26.9372 32.8888 28.7777 34.7296 28.7777 37V69.8888C28.7777 72.1595 26.9372 74 24.6667 74H4.11112C1.84063 74 0 72.1595 0 69.8888V37ZM4.11112 0C1.84063 0 0 1.84063 0 4.11112V20.5556C0 22.826 1.84063 24.6667 4.11112 24.6667H24.6667C26.9372 24.6667 28.7777 22.826 28.7777 20.5556V4.11112C28.7777 1.84063 26.9372 0 24.6667 0H4.11112Z" fill="#369E12"/>
</svg>
