<svg width="193" height="203" viewBox="0 0 193 203" fill="none" xmlns="http://www.w3.org/2000/svg">
<g clip-path="url(#clip0_27_326)">
<g filter="url(#filter0_f_27_326)">
<path d="M175.557 167.352C175.557 174.582 167.228 181.517 152.402 186.63C137.576 191.743 117.467 194.615 96.5001 194.615C75.5329 194.615 55.4245 191.743 40.5984 186.63C25.7724 181.517 17.4432 174.582 17.4432 167.352C17.4432 160.121 25.7724 153.186 40.5984 148.074C55.4245 142.961 75.5329 140.088 96.5001 140.088C117.467 140.088 137.576 142.961 152.402 148.074C167.228 153.186 175.557 160.121 175.557 167.352Z" fill="url(#paint0_radial_27_326)"/>
</g>
<path d="M139.063 151.096C139.063 162.081 128.083 167.649 118.408 170.424C103.851 174.607 92.1696 173.967 80.0042 170.424C69.8444 167.464 60.7951 161.416 60.7951 151.101V114.86C59.3477 102.29 68.7171 94.0875 79.2328 94.0875L117.794 93.0662C128.828 88.2975 136.065 84.4375 138.478 71.8925L138.946 54.04L156.825 54.4586C168.009 54.4586 173.274 62.7684 176.035 73.7811C179.877 89.0776 180.047 100.518 176.035 112.441C172.15 124.023 168.463 132.688 157.295 132.688H139.443L99.2129 131.764V131.684C139.063 131.764 139.063 116.345 139.063 149.093V151.096Z" fill="url(#paint1_linear_27_326)"/>
<path d="M113.027 153.506C113.027 149.507 116.257 146.263 120.227 146.263C124.248 146.263 127.427 149.507 127.427 153.506C127.427 157.518 124.211 160.762 120.227 160.762C116.257 160.762 113.027 157.518 113.027 153.506Z" fill="white"/>
<path opacity="0.837" d="M139.443 54.4677L138.478 72.375C133.17 99.395 101.952 94.0875 80.0951 94.0875L73.8226 94.57L68.9976 96.5C57.6018 106.296 60.3028 121.953 60.3113 135.741C85.4423 107.699 112.25 105.583 125.624 105.644C152.313 105.76 164.883 99.1987 177.629 84.7599C177.565 84.4785 177.693 84.2292 177.629 83.9409C177.138 80.7242 176.277 77.2888 175.377 73.7038C174.083 68.5415 172.39 63.9971 169.645 60.6003C169.58 60.536 169.492 60.4636 169.44 60.3993C169.44 60.3993 169.271 60.3993 169.238 60.3993C169.146 60.2867 169.126 60.0977 169.037 59.9928C168.848 59.8561 168.828 59.7113 168.631 59.5867C168.567 59.5224 168.475 59.651 168.43 59.5867C165.519 57.6997 161.982 56.2916 158.398 55.6961C155.148 55.159 151.887 54.7496 148.57 54.4678H146.522H141.814L139.443 54.4677Z" fill="url(#paint2_linear_27_326)"/>
<path d="M138.956 151.099C138.956 162.084 127.498 167.649 117.822 170.423C103.267 174.605 91.5865 173.965 79.4195 170.423C69.2588 167.464 60.1155 161.416 60.0994 151.103L60.035 113.878C59.9948 101.522 69.291 93.7336 79.5321 93.7738L113.575 93.8341C126.643 93.8341 139.349 80.5653 139.313 67.4976V54.4822H156.24C167.424 54.4822 172.686 62.7932 175.448 73.8063C179.292 89.1016 179.469 100.541 175.448 112.467C171.564 124.047 167.406 133.164 156.24 133.166H138.951H98.6218V133.085L138.951 133.222L138.956 151.099Z" stroke="#BB9400" stroke-width="1.63"/>
<path opacity="0.384" d="M142.6 57.7327V67.3557C142.6 82.3313 128.541 97.0122 112.521 97.0122H79.3523C67.8905 97.0122 63.195 105.685 63.2521 114.856L63.4773 151.096C63.5175 155.296 65.0856 158.428 68.0932 161.128C71.1008 163.828 75.6226 165.885 80.378 167.271C92.1044 170.685 102.798 171.3 116.822 167.271C121.376 165.965 127.435 163.491 130.483 160.852C133.531 158.212 135.741 155.64 135.741 151.096V136.501H95.3239V129.748L156.337 129.949C161.165 129.949 163.526 128.049 165.924 125.271C168.323 122.493 170.407 117.041 172.307 111.375C176.109 100.078 176.061 89.4655 172.307 74.5213C171 69.303 169.1 65.088 166.575 62.2368C164.05 59.3856 161.118 57.7327 156.337 57.7327H142.6ZM149.152 64.2842H156.336C158.427 64.2842 161.158 65.9705 161.659 66.5367C163.117 68.1824 164.795 71.5169 165.959 76.1593C169.536 90.3995 169.544 99.2852 166.16 109.328C164.344 114.744 162.459 119.839 161.042 121.39C159.762 122.755 157.021 123.438 156.332 123.438L137.087 123.233H88.7671V143.089H129.185V151.131C129.185 154.054 125.271 155.871 124.598 156.454C122.639 158.151 119.166 159.815 115.18 160.958C102.22 164.683 93.065 164.118 82.2152 160.958C78.1095 159.762 74.551 158.007 72.5374 156.296C70.5238 154.585 70.3999 153.184 70.0292 151.129L69.804 114.89C69.7518 106.758 72.4003 103.598 79.3527 103.598H112.521C132.317 103.598 149.152 86.1065 149.152 67.3895C149.152 66.3545 149.152 65.3192 149.152 64.2842Z" fill="white"/>
<path d="M54.5223 28.95C55.4873 18.335 60.1436 16.4296 75.7523 10.1326C86.7943 8.19734 97.7704 7.44862 110.975 9.6255C121.404 11.3472 133.052 19.1163 133.052 29.4321V65.6735C133.052 76.3022 126.003 86.9353 115.317 86.9353H79.0138C65.9807 86.9353 53.0748 98.4103 53.0748 110.975V125.933H37.1523C25.9828 125.933 20.544 118.021 17.8123 106.752C14.1268 91.6127 13.0276 73.8225 20.7473 60.795C23.8064 48.1451 30.928 48.2501 41.0123 48.2501H55.0048C55.0048 48.2501 90.0053 47.7555 54.0398 47.7675V30.3975L54.5223 28.95Z" fill="url(#paint3_linear_27_326)"/>
<path d="M65.8344 27.0273C65.8344 23.0065 69.051 19.7705 73.0341 19.7705C77.0038 19.7705 80.2342 23.0145 80.2342 27.0273C80.2342 31.0256 77.0038 34.2696 73.0341 34.2696C69.0502 34.2696 65.8344 31.0256 65.8344 27.0273Z" fill="white"/>
<path opacity="0.377" d="M91.678 7.75079C85.9949 7.8883 80.5831 9.28615 75.7524 10.1325C61.6573 16.8762 54.8579 18.1751 54.8579 29.1597V47.9772H38.9354C27.766 47.9772 21.2346 55.0917 18.1755 67.7404C16.0988 76.2746 15.1583 82.9561 15.5133 90.0577C40.814 61.3815 67.9619 59.2858 81.4409 59.3465C108.13 59.4631 120.699 52.9015 133.446 38.4627V29.2494C132.205 19.3 124.002 13.51 113.87 10.6149C106.443 9.38939 98.9846 7.57387 91.678 7.75079Z" fill="url(#paint4_linear_27_326)"/>
<path d="M75.1734 10.5631C89.7293 6.37984 101.411 7.02036 113.576 10.5631C123.736 13.5228 132.791 19.5988 132.786 29.915V69.0148C132.786 74.508 124.846 87.2263 113.596 87.2263H77.8151C67.7699 87.2263 53.7022 98.1698 53.7022 111.275V126.529H36.7745C25.5905 126.529 20.3257 118.219 17.5654 107.205C13.7235 91.9098 13.5445 80.4697 17.5654 68.5459C21.4499 56.9635 25.607 47.8479 36.7745 47.8479H54.058H94.387V47.9243L54.058 47.7876L54.1344 28.1929C54.0299 20.1653 63.8439 13.9088 75.1734 10.5631Z" stroke="#274E70" stroke-width="1.63"/>
<path opacity="0.165" d="M50.396 123.254V112.011C50.396 97.0355 64.0479 83.7503 78.7272 83.7503H113.644C122.308 83.7503 129.824 74.7392 129.744 66.1306L129.409 29.8908C129.37 25.691 127.912 22.5588 124.904 19.8584C121.897 17.158 117.375 15.1014 112.62 13.7162C100.892 10.3009 90.1986 9.68611 76.1751 13.7162C71.6211 15.0222 65.5617 17.4958 62.514 20.1351C59.4654 22.7743 57.2563 25.346 57.2563 29.8908V44.4856H97.6733V51.2422L36.66 51.0372C31.835 51.0372 29.4707 52.9366 27.0727 55.715C24.6747 58.4926 22.5899 63.9444 20.69 69.6106C16.8879 80.9075 16.9366 91.5201 20.69 106.464C21.9976 111.683 23.8971 115.898 26.423 118.749C28.948 121.6 31.8792 123.253 36.66 123.253H50.396V123.254ZM43.844 116.702H36.66C34.5692 116.702 31.835 115.015 31.3368 114.45C29.8789 112.804 28.2002 109.469 27.0365 104.827C23.46 90.5869 23.4524 81.7016 26.8335 71.6584C28.6497 66.2432 30.5347 61.1475 31.952 59.6365C33.2322 58.2723 35.9362 57.5891 36.6612 57.5891L104.226 57.7942V37.9337H63.8095V29.892C63.8095 26.9689 67.7225 25.1518 68.396 24.5688C70.3554 22.8724 73.8278 21.2078 77.8144 20.0655C90.7732 16.3414 99.929 16.9059 110.778 20.0655C114.885 21.2617 118.443 23.0164 120.401 24.7747C121.098 25.3183 121.465 25.9701 122.041 26.617C122.84 27.57 122.665 28.8294 122.849 29.8928V66.1326C122.849 71.1011 118.601 77.2007 113.636 77.2007H78.7199C60.2655 77.2007 43.8368 93.2957 43.8368 112.013C43.8368 113.572 43.8368 116.702 43.8368 116.702H43.844Z" fill="white"/>
</g>
<defs>
<filter id="filter0_f_27_326" x="3.44324" y="126.088" width="186.114" height="82.5266" filterUnits="userSpaceOnUse" color-interpolation-filters="sRGB">
<feFlood flood-opacity="0" result="BackgroundImageFix"/>
<feBlend mode="normal" in="SourceGraphic" in2="BackgroundImageFix" result="shape"/>
<feGaussianBlur stdDeviation="7" result="effect1_foregroundBlur_27_326"/>
</filter>
<radialGradient id="paint0_radial_27_326" cx="0" cy="0" r="1" gradientUnits="userSpaceOnUse" gradientTransform="translate(96.5002 167.351) scale(79.0592 27.2633)">
<stop stop-opacity="0.8"/>
<stop offset="1" stop-opacity="0"/>
</radialGradient>
<linearGradient id="paint1_linear_27_326" x1="103.695" y1="54.4588" x2="100.527" y2="168.502" gradientUnits="userSpaceOnUse">
<stop stop-color="#FFE253"/>
<stop offset="1" stop-color="#FFCA1C"/>
</linearGradient>
<linearGradient id="paint2_linear_27_326" x1="109.418" y1="128.143" x2="109.418" y2="59.1929" gradientUnits="userSpaceOnUse">
<stop stop-color="white"/>
<stop offset="1" stop-color="white" stop-opacity="0.165"/>
</linearGradient>
<linearGradient id="paint3_linear_27_326" x1="15.106" y1="67.0819" x2="133.052" y2="67.0819" gradientUnits="userSpaceOnUse">
<stop stop-color="#3778AE"/>
<stop offset="1" stop-color="#366C99"/>
</linearGradient>
<linearGradient id="paint4_linear_27_326" x1="65.1926" y1="81.765" x2="65.1926" y2="12.8149" gradientUnits="userSpaceOnUse">
<stop stop-color="white"/>
<stop offset="1" stop-color="white" stop-opacity="0.165"/>
</linearGradient>
<clipPath id="clip0_27_326">
<rect width="193" height="203" fill="white"/>
</clipPath>
</defs>
</svg>
