<svg width="140" height="153" viewBox="0 0 140 153" fill="none" xmlns="http://www.w3.org/2000/svg">
<path d="M134.852 88.6738C137.548 88.9097 139.56 91.2908 139.136 93.9636C136.913 107.985 130.469 121.042 120.608 131.362C109.614 142.866 95.03 150.281 79.258 152.385C63.4859 154.49 47.4675 151.158 33.8427 142.939C20.2179 134.72 9.79982 122.104 4.30549 107.171C-1.18884 92.2377 -1.43156 75.8783 3.61734 60.7887C8.66624 45.6991 18.7055 32.7799 32.0804 24.1603C45.4554 15.5408 61.3679 11.7352 77.1955 13.3708C91.3936 14.838 104.763 20.6053 115.544 29.8422C117.599 31.603 117.61 34.7202 115.71 36.6471V36.6471C113.81 38.574 110.719 38.5782 108.644 36.841C99.4654 29.156 88.1698 24.3571 76.1881 23.1189C62.5764 21.7123 48.8916 24.9851 37.3892 32.3979C25.8867 39.8107 17.253 50.9212 12.9109 63.8983C8.56886 76.8753 8.77759 90.9444 13.5027 103.787C18.2278 116.629 27.1874 127.479 38.9047 134.547C50.622 141.616 64.3979 144.481 77.9618 142.671C91.5258 140.861 104.068 134.484 113.523 124.591C121.845 115.883 127.336 104.907 129.346 93.1056C129.8 90.4378 132.156 88.438 134.852 88.6738V88.6738Z" fill="#5221E6"/>
<path d="M121.344 43.3992C123.519 43.0156 124.972 40.941 124.588 38.7654L118.337 3.31233C117.953 1.13676 115.879 -0.315917 113.703 0.0676959C111.528 0.451309 110.075 2.52594 110.459 4.70152L116.015 36.2154L84.5014 41.7721C82.3259 42.1557 80.8732 44.2304 81.2568 46.4059C81.6404 48.5815 83.715 50.0342 85.8906 49.6506L121.344 43.3992ZM110.045 36.9177L118.355 42.7366L122.943 36.1834L114.633 30.3645L110.045 36.9177Z" fill="#5221E6"/>
</svg>
