<svg width="63" height="81" viewBox="0 0 63 81" fill="none" xmlns="http://www.w3.org/2000/svg">
<path d="M2 30.0353V18.937C20.9695 25.9217 41.8125 25.9217 60.782 18.937V30.0353C41.8791 37.3892 20.9029 37.3892 2 30.0353Z" stroke="#A93CFF" stroke-width="4"/>
<path d="M2 47.973V36.8747C20.9695 43.8595 41.8125 43.8595 60.782 36.8747V47.973C41.8791 55.3269 20.9029 55.3269 2 47.973Z" stroke="#A93CFF" stroke-width="4"/>
<path d="M2 65.9105V54.8122C20.9695 61.797 41.8125 61.797 60.782 54.8122V65.9105C41.8791 73.2644 20.9029 73.2644 2 65.9105Z" stroke="#A93CFF" stroke-width="4"/>
<path d="M60.782 9.60949C60.782 9.98514 60.5272 10.7276 59.1425 11.7298C57.8032 12.6991 55.7364 13.6551 53.0024 14.492C47.559 16.1584 39.9178 17.219 31.391 17.219C22.8642 17.219 15.223 16.1584 9.77964 14.492C7.04563 13.6551 4.97878 12.6991 3.63947 11.7298C2.25479 10.7276 2 9.98514 2 9.60949C2 9.23384 2.25479 8.49139 3.63947 7.48922C4.97878 6.51989 7.04563 5.56389 9.77964 4.72695C15.223 3.06063 22.8642 2 31.391 2C39.9178 2 47.559 3.06063 53.0024 4.72695C55.7364 5.56389 57.8032 6.51989 59.1425 7.48922C60.5272 8.49139 60.782 9.23384 60.782 9.60949Z" stroke="#A93CFF" stroke-width="4"/>
</svg>
