<svg width="76" height="71" viewBox="0 0 76 71" fill="none" xmlns="http://www.w3.org/2000/svg">
<path d="M49.6395 1.2L39.5635 32H31.9075L25.1315 11.144L18.1355 32H10.5235L0.403547 1.2H7.79555L14.7475 22.848L22.0075 1.2H28.6075L35.6475 23.024L42.8195 1.2H49.6395ZM75.3393 26.192V32H52.0633V27.38L63.9433 16.16C65.2047 14.9573 66.0553 13.9307 66.4953 13.08C66.9353 12.2 67.1553 11.3347 67.1553 10.484C67.1553 9.252 66.73 8.31333 65.8793 7.668C65.058 6.99333 63.8407 6.656 62.2273 6.656C60.878 6.656 59.6607 6.92 58.5753 7.448C57.49 7.94667 56.5807 8.70933 55.8473 9.736L50.6553 6.392C51.858 4.60267 53.5153 3.20933 55.6273 2.212C57.7393 1.18533 60.1593 0.671999 62.8873 0.671999C65.1753 0.671999 67.17 1.05333 68.8713 1.816C70.602 2.54933 71.9367 3.60533 72.8753 4.984C73.8433 6.33333 74.3273 7.932 74.3273 9.78C74.3273 11.452 73.9753 13.0213 73.2713 14.488C72.5673 15.9547 71.2033 17.6267 69.1793 19.504L62.0953 26.192H75.3393ZM30.1584 40.2C32.8864 40.2 35.2477 40.6547 37.2424 41.564C39.2664 42.4733 40.821 43.764 41.9064 45.436C42.9917 47.108 43.5344 49.088 43.5344 51.376C43.5344 53.6347 42.9917 55.6147 41.9064 57.316C40.821 58.988 39.2664 60.2787 37.2424 61.188C35.2477 62.068 32.8864 62.508 30.1584 62.508H23.9544V71H16.8264V40.2H30.1584ZM29.7624 56.7C31.9037 56.7 33.5317 56.2453 34.6464 55.336C35.761 54.3973 36.3184 53.0773 36.3184 51.376C36.3184 49.6453 35.761 48.3253 34.6464 47.416C33.5317 46.4773 31.9037 46.008 29.7624 46.008H23.9544V56.7H29.7624ZM51.5272 60.088V71H44.3992V60L32.4752 40.2H40.0432L48.2712 53.884L56.4992 40.2H63.4952L51.5272 60.088Z" fill="#26A69A"/>
</svg>
